<svg width="112" height="112" viewBox="0 0 112 112" fill="none" xmlns="http://www.w3.org/2000/svg">
<path d="M56 7C28.9406 7 7 28.9406 7 56C7 83.0594 28.9406 105 56 105C83.0594 105 105 83.0594 105 56C105 28.9406 83.0594 7 56 7ZM52.5 32.375C52.5 31.8937 52.8937 31.5 53.375 31.5H58.625C59.1063 31.5 59.5 31.8937 59.5 32.375V62.125C59.5 62.6063 59.1063 63 58.625 63H53.375C52.8937 63 52.5 62.6063 52.5 62.125V32.375ZM56 80.5C54.6262 80.472 53.3181 79.9065 52.3564 78.925C51.3947 77.9435 50.8561 76.6241 50.8561 75.25C50.8561 73.8759 51.3947 72.5565 52.3564 71.575C53.3181 70.5935 54.6262 70.028 56 70C57.3738 70.028 58.6819 70.5935 59.6436 71.575C60.6053 72.5565 61.1439 73.8759 61.1439 75.25C61.1439 76.6241 60.6053 77.9435 59.6436 78.925C58.6819 79.9065 57.3738 80.472 56 80.5Z" fill="white"/>
</svg>
