<svg width="33" height="32" viewBox="0 0 33 32" fill="none" xmlns="http://www.w3.org/2000/svg">
<path d="M32.9438 23.675L31.275 13.675C31.1125 12.7125 30.2813 12.0063 29.3 12.0063H14V8.00625H20C20.55 8.00625 21 7.55625 21 7.00625V1C21 0.45 20.55 0 20 0H4C3.45 0 3 0.45 3 1V7C3 7.55 3.45 8 4 8H10V12H4.69375C3.71875 12 2.88125 12.7062 2.71875 13.6687L1.05 23.6688C1.0125 23.8875 0.993752 24.1063 0.993752 24.325V30C0.993752 31.1063 1.8875 32 2.99375 32H30.9938C32.1 32 32.9938 31.1063 32.9938 30V24.3312C33 24.1125 32.9813 23.8937 32.9438 23.675V23.675ZM18.5 15.5C18.5 14.95 18.95 14.5 19.5 14.5H20.5C21.05 14.5 21.5 14.95 21.5 15.5V16.5C21.5 17.05 21.05 17.5 20.5 17.5H19.5C18.95 17.5 18.5 17.05 18.5 16.5V15.5ZM16.5 19.5H17.5C18.05 19.5 18.5 19.95 18.5 20.5V21.5C18.5 22.05 18.05 22.5 17.5 22.5H16.5C15.95 22.5 15.5 22.05 15.5 21.5V20.5C15.5 19.95 15.95 19.5 16.5 19.5ZM14.5 14.5C15.05 14.5 15.5 14.95 15.5 15.5V16.5C15.5 17.05 15.05 17.5 14.5 17.5H13.5C12.95 17.5 12.5 17.05 12.5 16.5V15.5C12.5 14.95 12.95 14.5 13.5 14.5H14.5ZM6 5V3H18V5H6ZM8.5 17.5H7.5C6.95 17.5 6.5 17.05 6.5 16.5V15.5C6.5 14.95 6.95 14.5 7.5 14.5H8.5C9.05 14.5 9.5 14.95 9.5 15.5V16.5C9.5 17.05 9.05 17.5 8.5 17.5ZM9.5 21.5V20.5C9.5 19.95 9.95 19.5 10.5 19.5H11.5C12.05 19.5 12.5 19.95 12.5 20.5V21.5C12.5 22.05 12.05 22.5 11.5 22.5H10.5C9.95 22.5 9.5 22.05 9.5 21.5ZM23 28.5C23 28.775 22.775 29 22.5 29H11.5C11.225 29 11 28.775 11 28.5V27.5C11 27.225 11.225 27 11.5 27H22.5C22.775 27 23 27.225 23 27.5V28.5ZM24.5 21.5C24.5 22.05 24.05 22.5 23.5 22.5H22.5C21.95 22.5 21.5 22.05 21.5 21.5V20.5C21.5 19.95 21.95 19.5 22.5 19.5H23.5C24.05 19.5 24.5 19.95 24.5 20.5V21.5ZM27.5 16.5C27.5 17.05 27.05 17.5 26.5 17.5H25.5C24.95 17.5 24.5 17.05 24.5 16.5V15.5C24.5 14.95 24.95 14.5 25.5 14.5H26.5C27.05 14.5 27.5 14.95 27.5 15.5V16.5Z" fill="white"/>
</svg>
