<svg width="112" height="112" viewBox="0 0 112 112" fill="none" xmlns="http://www.w3.org/2000/svg">
<path d="M110.25 56C110.25 85.9615 85.9615 110.25 56 110.25C26.0385 110.25 1.75 85.9615 1.75 56C1.75 26.0385 26.0385 1.75 56 1.75C85.9615 1.75 110.25 26.0385 110.25 56ZM49.7249 84.7249L89.9749 44.4749C91.3417 43.1082 91.3417 40.892 89.9749 39.5253L85.0253 34.5756C83.6585 33.2087 81.4424 33.2087 80.0754 34.5756L47.25 67.4008L31.9246 52.0754C30.5578 50.7087 28.3417 50.7087 26.9747 52.0754L22.0251 57.0251C20.6583 58.3918 20.6583 60.608 22.0251 61.9747L44.7751 84.7247C46.142 86.0917 48.358 86.0917 49.7249 84.7249V84.7249Z" fill="#75BD00"/>
</svg>
