<svg width="112" height="112" viewBox="0 0 112 112" fill="none" xmlns="http://www.w3.org/2000/svg">
<path d="M56 1.75C26.0312 1.75 1.75 26.0312 1.75 56C1.75 85.9688 26.0312 110.25 56 110.25C85.9688 110.25 110.25 85.9688 110.25 56C110.25 26.0312 85.9688 1.75 56 1.75ZM82.6 70.2406C83.6281 71.2688 83.6281 72.9313 82.6 73.9594L73.9375 82.6C72.9094 83.6281 71.2469 83.6281 70.2188 82.6L56 68.25L41.7594 82.6C40.7312 83.6281 39.0687 83.6281 38.0406 82.6L29.4 73.9375C28.3719 72.9094 28.3719 71.2469 29.4 70.2188L43.75 56L29.4 41.7594C28.3719 40.7312 28.3719 39.0687 29.4 38.0406L38.0625 29.3781C39.0906 28.35 40.7531 28.35 41.7812 29.3781L56 43.75L70.2406 29.4C71.2688 28.3719 72.9313 28.3719 73.9594 29.4L82.6219 38.0625C83.65 39.0906 83.65 40.7531 82.6219 41.7812L68.25 56L82.6 70.2406Z" fill="white"/>
</svg>
