<svg width="32" height="32" viewBox="0 0 32 32" fill="none" xmlns="http://www.w3.org/2000/svg">
<path d="M13.3333 16C16.2789 16 18.6667 13.6122 18.6667 10.6667C18.6667 7.72116 16.2789 5.33334 13.3333 5.33334C10.3878 5.33334 8 7.72116 8 10.6667C8 13.6122 10.3878 16 13.3333 16Z" fill="white"/>
<path d="M13.8 18.68C10.16 18.5467 2.66667 20.36 2.66667 24V26.6667H15.3867C12.0933 22.9867 13.7467 18.8133 13.8 18.68ZM25.9067 24.0267C26.3867 23.24 26.6667 22.32 26.6667 21.3333C26.6667 18.3867 24.28 16 21.3333 16C18.3867 16 16 18.3867 16 21.3333C16 24.28 18.3867 26.6667 21.3333 26.6667C22.32 26.6667 23.24 26.3733 24.0267 25.9067L27.4533 29.3333L29.3333 27.4533L25.9067 24.0267ZM21.3333 24C19.8667 24 18.6667 22.8 18.6667 21.3333C18.6667 19.8667 19.8667 18.6667 21.3333 18.6667C22.8 18.6667 24 19.8667 24 21.3333C24 22.8 22.8 24 21.3333 24Z" fill="white"/>
</svg>
