<svg width="32" height="32" viewBox="0 0 32 32" fill="none" xmlns="http://www.w3.org/2000/svg">
<path d="M25.3333 29.3333H6.66667C5.6058 29.3333 4.58839 28.9119 3.83824 28.1618C3.0881 27.4116 2.66667 26.3942 2.66667 25.3333V3.99999C2.66667 3.64637 2.80714 3.30723 3.05719 3.05718C3.30724 2.80713 3.64638 2.66666 4 2.66666H22.6667C23.0203 2.66666 23.3594 2.80713 23.6095 3.05718C23.8595 3.30723 24 3.64637 24 3.99999V20H29.3333V25.3333C29.3333 26.3942 28.9119 27.4116 28.1618 28.1618C27.4116 28.9119 26.3942 29.3333 25.3333 29.3333ZM24 22.6667V25.3333C24 25.6869 24.1405 26.0261 24.3905 26.2761C24.6406 26.5262 24.9797 26.6667 25.3333 26.6667C25.687 26.6667 26.0261 26.5262 26.2761 26.2761C26.5262 26.0261 26.6667 25.6869 26.6667 25.3333V22.6667H24ZM8 9.33332V12H18.6667V9.33332H8ZM8 14.6667V17.3333H18.6667V14.6667H8ZM8 20V22.6667H14.6667V20H8Z" fill="white"/>
</svg>
