<svg width="48" height="48" viewBox="0 0 48 48" fill="none" xmlns="http://www.w3.org/2000/svg">
<path d="M44.703 1.4968C38.2218 -1.0202 14.73 -1.964 14.6904 12.0532C7.836 16.4412 3.297 23.5892 3.297 31.2492C3.29613 34.3022 4.12987 37.2973 5.70806 39.9107C7.28626 42.5241 9.54886 44.6563 12.2512 46.0768C14.9535 47.4973 17.9928 48.1521 21.0403 47.9703C24.0879 47.7884 27.0277 46.777 29.542 45.0452C32.0563 43.3135 34.0493 40.9273 35.3056 38.1448C36.5619 35.3624 37.0336 32.2894 36.6698 29.2582C36.3059 26.227 35.1204 23.3529 33.2413 20.9468C31.3622 18.5406 28.8611 16.6939 26.0084 15.6064C24.796 15.1386 22.1616 14.3102 20.0578 14.4884C17.0564 16.3972 13.3962 20.3194 11.668 24.227C16.8468 18.063 26.6772 19.377 30.0554 26.6844C33.4338 33.992 28.0666 42.3318 20.0158 42.284C18.4207 42.2866 16.8441 41.9422 15.3954 41.2747C13.9467 40.6072 12.6605 39.6325 11.626 38.4184C8.656 34.9218 7.8904 31.1296 8.503 27.4234C10.617 14.434 26.021 7.0446 37.475 4.2046C33.7396 6.1826 27.0004 9.4314 22.2854 12.972C36.03 18.2764 38.2616 6.69 44.703 1.4968Z" fill="#A0FF47"/>
</svg>
